<?xml version="1.0" encoding="UTF-8"?>
<svg xmlns="http://www.w3.org/2000/svg" xmlns:xlink="http://www.w3.org/1999/xlink" width="298px" height="70px" viewBox="0 0 297 70" version="1.1">
<g id="surface1">
<path style=" stroke:none;fill-rule:nonzero;fill:rgb(0%,26.666667%,69.803922%);fill-opacity:1;" d="M 29.773438 0.0898438 C 29.625 0.0976562 29.085938 0.136719 28.582031 0.171875 C 20.480469 0.699219 12.386719 3.238281 5.363281 7.480469 C 4.550781 7.964844 2.230469 9.488281 1.902344 9.746094 C 1.84375 9.796875 1.734375 10.21875 1.554688 11.109375 C 0.832031 14.765625 0.519531 17.875 0.519531 21.574219 L 0.519531 23.378906 L 1.386719 23.777344 C 4.332031 25.128906 8.148438 26.414062 11.398438 27.132812 C 15.410156 28.027344 18.699219 28.390625 22.855469 28.390625 C 25.90625 28.390625 28.15625 28.21875 30.96875 27.773438 C 42.960938 25.894531 53.941406 19.832031 62.015625 10.628906 C 62.347656 10.246094 62.621094 9.917969 62.601562 9.898438 C 62.554688 9.816406 60.046875 8.148438 59.195312 7.628906 C 56.609375 6.058594 53.597656 4.566406 50.882812 3.519531 C 46.078125 1.675781 41.328125 0.613281 35.863281 0.164062 C 35.140625 0.101562 30.347656 0.046875 29.773438 0.0898438 Z M 29.773438 0.0898438 "/>
<path style=" stroke:none;fill-rule:nonzero;fill:rgb(0%,26.666667%,69.803922%);fill-opacity:1;" d="M 188.757812 21.066406 L 188.757812 40.113281 L 191.253906 40.113281 L 191.253906 2.015625 L 188.757812 2.015625 Z M 188.757812 21.066406 "/>
<path style=" stroke:none;fill-rule:nonzero;fill:rgb(0%,26.666667%,69.803922%);fill-opacity:1;" d="M 176.277344 2.6875 C 175.6875 2.808594 175.109375 3.273438 174.828125 3.847656 C 174.691406 4.136719 174.671875 4.222656 174.671875 4.730469 C 174.671875 5.214844 174.691406 5.324219 174.820312 5.605469 C 175.007812 6.003906 175.375 6.378906 175.796875 6.582031 C 176.089844 6.71875 176.171875 6.738281 176.699219 6.738281 C 177.21875 6.738281 177.320312 6.71875 177.59375 6.597656 C 178.214844 6.296875 178.625 5.761719 178.757812 5.042969 C 178.984375 3.875 178.078125 2.734375 176.847656 2.660156 C 176.65625 2.644531 176.40625 2.660156 176.277344 2.6875 Z M 176.277344 2.6875 "/>
<path style=" stroke:none;fill-rule:nonzero;fill:rgb(0%,26.666667%,69.803922%);fill-opacity:1;" d="M 202.816406 2.707031 C 202.160156 2.886719 201.738281 3.234375 201.445312 3.835938 C 201.265625 4.21875 201.234375 4.308594 201.234375 4.691406 C 201.234375 5.207031 201.347656 5.570312 201.640625 5.953125 C 202.066406 6.527344 202.679688 6.800781 203.457031 6.753906 C 203.796875 6.738281 203.984375 6.699219 204.207031 6.582031 C 204.605469 6.390625 205 5.988281 205.199219 5.597656 C 205.328125 5.316406 205.339844 5.222656 205.339844 4.695312 C 205.339844 4.136719 205.335938 4.09375 205.15625 3.761719 C 204.691406 2.90625 203.703125 2.453125 202.816406 2.707031 Z M 202.816406 2.707031 "/>
<path style=" stroke:none;fill-rule:nonzero;fill:rgb(0%,26.666667%,69.803922%);fill-opacity:1;" d="M 236.453125 2.6875 C 235.867188 2.808594 235.28125 3.273438 235 3.847656 C 234.863281 4.136719 234.84375 4.222656 234.84375 4.730469 C 234.84375 5.214844 234.863281 5.324219 234.992188 5.605469 C 235.183594 6.003906 235.550781 6.378906 235.976562 6.582031 C 236.253906 6.71875 236.351562 6.738281 236.875 6.738281 C 237.394531 6.738281 237.492188 6.71875 237.765625 6.597656 C 238.390625 6.296875 238.792969 5.761719 238.929688 5.042969 C 239.15625 3.875 238.253906 2.734375 237.019531 2.660156 C 236.828125 2.644531 236.578125 2.660156 236.453125 2.6875 Z M 236.453125 2.6875 "/>
<path style=" stroke:none;fill-rule:nonzero;fill:rgb(0%,26.666667%,69.803922%);fill-opacity:1;" d="M 87.25 22.15625 L 87.25 40.113281 L 88.539062 40.097656 L 89.835938 40.085938 L 89.851562 32.148438 L 89.859375 24.21875 L 108.863281 24.21875 L 108.863281 21.882812 L 89.859375 21.882812 L 89.859375 6.542969 L 111.089844 6.542969 L 111.089844 4.199219 L 87.25 4.199219 Z M 87.25 22.15625 "/>
<path style=" stroke:none;fill-rule:nonzero;fill:rgb(0%,26.666667%,69.803922%);fill-opacity:1;" d="M 215.855469 7.480469 C 215.828125 7.5 215.816406 8.824219 215.816406 10.417969 L 215.816406 13.316406 L 210.921875 13.316406 L 210.921875 15.496094 L 215.808594 15.496094 L 215.828125 24.738281 C 215.851562 33.222656 215.863281 34.035156 215.953125 34.570312 C 216.21875 36.183594 216.804688 37.441406 217.753906 38.382812 C 219.011719 39.640625 220.792969 40.285156 223.0625 40.285156 C 224.632812 40.285156 225.964844 39.964844 227.21875 39.3125 C 227.730469 39.046875 228.324219 38.621094 228.449219 38.433594 C 228.484375 38.371094 228.367188 38.128906 227.984375 37.496094 C 227.703125 37.03125 227.472656 36.648438 227.453125 36.648438 C 227.445312 36.648438 227.269531 36.777344 227.054688 36.933594 C 226.136719 37.617188 224.941406 38.019531 223.5625 38.082031 C 221.957031 38.152344 220.628906 37.699219 219.734375 36.785156 C 219.28125 36.320312 219.03125 35.921875 218.785156 35.246094 C 218.382812 34.1875 218.410156 34.828125 218.394531 24.652344 L 218.363281 15.496094 L 226.816406 15.496094 L 226.816406 13.316406 L 218.367188 13.316406 L 218.367188 7.445312 L 217.132812 7.445312 C 216.449219 7.445312 215.871094 7.457031 215.855469 7.480469 Z M 215.855469 7.480469 "/>
<path style=" stroke:none;fill-rule:nonzero;fill:rgb(0%,26.666667%,69.803922%);fill-opacity:1;" d="M 62.421875 13.160156 C 60.539062 15.464844 58.089844 17.929688 55.679688 19.953125 C 44.664062 29.195312 30.585938 33.441406 16.269531 31.820312 C 11.316406 31.273438 6.15625 29.886719 1.5625 27.898438 C 1.039062 27.679688 0.851562 27.609375 0.851562 27.679688 C 0.851562 27.71875 0.929688 28.300781 1.023438 28.972656 C 1.679688 33.675781 2.851562 37.886719 4.707031 42.292969 C 5.21875 43.523438 6.789062 46.765625 6.921875 46.867188 C 6.960938 46.902344 7.378906 47.042969 7.847656 47.183594 C 11.667969 48.335938 15.164062 48.992188 19.355469 49.320312 C 20.855469 49.445312 24.894531 49.464844 26.382812 49.355469 C 32.601562 48.910156 38.109375 47.585938 43.554688 45.246094 C 50.453125 42.285156 56.867188 37.679688 61.800781 32.144531 C 63.1875 30.589844 63.085938 30.746094 63.207031 30.03125 C 63.660156 27.226562 63.863281 24.601562 63.863281 21.511719 C 63.863281 18.464844 63.714844 16.398438 63.269531 13.425781 C 63.1875 12.886719 63.105469 12.433594 63.085938 12.414062 C 63.070312 12.386719 62.769531 12.730469 62.421875 13.160156 Z M 62.421875 13.160156 "/>
<path style=" stroke:none;fill-rule:nonzero;fill:rgb(0%,26.666667%,69.803922%);fill-opacity:1;" d="M 125.417969 13.132812 C 123.742188 13.226562 121.863281 13.617188 120.328125 14.183594 C 119.476562 14.5 117.945312 15.269531 117.214844 15.777344 C 116.417969 16.304688 115.777344 16.824219 115.785156 16.925781 C 115.789062 16.964844 116.0625 17.382812 116.390625 17.863281 L 116.984375 18.738281 L 117.496094 18.320312 C 119.429688 16.761719 121.960938 15.738281 124.601562 15.449219 C 125.289062 15.367188 127.089844 15.367188 127.699219 15.449219 C 129.589844 15.683594 131.089844 16.34375 132.136719 17.398438 C 132.777344 18.035156 133.28125 18.875 133.589844 19.804688 C 133.957031 20.910156 134.085938 22.003906 134.085938 23.980469 L 134.085938 25.175781 L 128.578125 25.191406 C 122.574219 25.21875 122.636719 25.203125 121.140625 25.546875 C 119.878906 25.832031 118.730469 26.304688 117.832031 26.914062 C 116.964844 27.496094 116.089844 28.519531 115.660156 29.457031 C 114.972656 30.980469 114.835938 33.050781 115.3125 34.800781 C 115.457031 35.347656 116.003906 36.464844 116.363281 36.925781 C 117.585938 38.546875 119.578125 39.65625 122.046875 40.085938 C 123.378906 40.316406 125.496094 40.339844 126.777344 40.148438 C 128.035156 39.949219 129.308594 39.550781 130.3125 39.046875 C 131.609375 38.398438 132.960938 37.195312 133.753906 35.984375 L 134.167969 35.347656 L 134.1875 37.726562 L 134.195312 40.113281 L 136.585938 40.113281 L 136.585938 31.0625 C 136.585938 23.34375 136.570312 21.910156 136.503906 21.285156 C 136.003906 16.980469 133.566406 14.246094 129.472656 13.40625 C 128.414062 13.1875 126.539062 13.058594 125.417969 13.132812 Z M 134.074219 29.675781 L 134.085938 32.191406 L 133.753906 32.894531 C 132.40625 35.699219 130.222656 37.414062 127.234375 37.980469 C 124.921875 38.433594 122.171875 38.144531 120.445312 37.269531 C 118.402344 36.246094 117.386719 34.355469 117.59375 31.984375 C 117.816406 29.410156 119.421875 27.902344 122.53125 27.351562 C 123.515625 27.179688 124.476562 27.152344 129.453125 27.152344 L 134.058594 27.160156 Z M 134.074219 29.675781 "/>
<path style=" stroke:none;fill-rule:nonzero;fill:rgb(0%,26.666667%,69.803922%);fill-opacity:1;" d="M 156.554688 13.152344 C 151.460938 13.519531 147.300781 16.414062 145.402344 20.871094 C 144.917969 22.03125 144.570312 23.304688 144.386719 24.671875 C 144.25 25.648438 144.25 27.800781 144.386719 28.722656 C 144.652344 30.582031 145.191406 32.265625 145.960938 33.652344 C 147.941406 37.230469 151.257812 39.476562 155.535156 40.148438 C 156.335938 40.261719 158.175781 40.316406 159.0625 40.230469 C 162.570312 39.910156 165.582031 38.328125 167.457031 35.828125 C 167.628906 35.613281 167.757812 35.410156 167.757812 35.382812 C 167.75 35.320312 166.003906 34.042969 165.9375 34.042969 C 165.910156 34.042969 165.765625 34.191406 165.617188 34.378906 C 163.765625 36.707031 160.980469 37.980469 157.726562 37.988281 C 156.410156 37.988281 155.195312 37.800781 154 37.398438 C 150.070312 36.101562 147.460938 32.746094 146.949219 28.320312 C 146.855469 27.496094 146.835938 26.019531 146.929688 25.238281 C 147.386719 20.9375 149.769531 17.664062 153.515625 16.160156 C 155.40625 15.410156 158.046875 15.214844 160.191406 15.675781 C 162.382812 16.144531 164.320312 17.355469 165.683594 19.113281 L 165.910156 19.40625 L 166.835938 18.730469 C 167.34375 18.363281 167.757812 18.035156 167.757812 18.003906 C 167.757812 17.902344 167.015625 16.988281 166.503906 16.46875 C 164.109375 14.042969 160.558594 12.863281 156.554688 13.152344 Z M 156.554688 13.152344 "/>
<path style=" stroke:none;fill-rule:nonzero;fill:rgb(0%,26.666667%,69.803922%);fill-opacity:1;" d="M 257.675781 13.144531 C 253.691406 13.488281 250.382812 15.449219 248.253906 18.714844 C 247.101562 20.480469 246.417969 22.429688 246.117188 24.78125 C 245.992188 25.75 246 27.652344 246.117188 28.613281 C 246.648438 32.675781 248.628906 35.976562 251.792969 38.0625 C 252.976562 38.835938 254.769531 39.585938 256.210938 39.914062 C 257.464844 40.195312 258.082031 40.25 259.648438 40.257812 C 261.355469 40.257812 262.074219 40.175781 263.410156 39.832031 C 265.15625 39.386719 266.570312 38.71875 267.921875 37.691406 C 268.523438 37.25 269.722656 36.058594 269.695312 35.941406 C 269.683594 35.855469 268.335938 34.296875 268.269531 34.296875 C 268.25 34.296875 268.078125 34.480469 267.878906 34.691406 C 266.632812 36.101562 264.664062 37.207031 262.589844 37.671875 C 259.273438 38.425781 255.738281 37.816406 253.125 36.058594 C 250.410156 34.226562 248.839844 31.398438 248.511719 27.707031 L 248.476562 27.300781 L 271.367188 27.300781 L 271.410156 26.816406 C 271.457031 26.25 271.359375 24.882812 271.210938 23.964844 C 270.710938 20.878906 269.273438 18.136719 267.15625 16.234375 C 265.300781 14.566406 262.953125 13.515625 260.402344 13.207031 C 259.726562 13.132812 258.3125 13.089844 257.675781 13.144531 Z M 260.796875 15.550781 C 264.796875 16.359375 267.703125 19.242188 268.652344 23.359375 C 268.753906 23.796875 268.929688 24.984375 268.929688 25.238281 C 268.929688 25.347656 268.808594 25.347656 258.769531 25.347656 C 252.703125 25.347656 248.59375 25.320312 248.574219 25.292969 C 248.527344 25.203125 248.695312 23.972656 248.851562 23.304688 C 249.871094 18.984375 253.042969 16.035156 257.324219 15.441406 C 257.519531 15.414062 258.242188 15.402344 258.933594 15.410156 C 259.949219 15.429688 260.292969 15.449219 260.796875 15.550781 Z M 260.796875 15.550781 "/>
<path style=" stroke:none;fill-rule:nonzero;fill:rgb(0%,26.666667%,69.803922%);fill-opacity:1;" d="M 285.160156 13.144531 C 281.066406 13.472656 278.246094 15.011719 277.011719 17.589844 C 276.164062 19.367188 276.15625 21.613281 276.984375 23.359375 C 277.882812 25.253906 279.6875 26.421875 282.933594 27.246094 C 283.738281 27.453125 284.210938 27.542969 287.261719 28.136719 C 289.40625 28.558594 290.558594 28.894531 291.574219 29.402344 C 293.21875 30.214844 293.984375 31.363281 293.992188 33.019531 C 293.996094 35.621094 292.3125 37.253906 289.070312 37.816406 C 287.070312 38.152344 284.765625 38.105469 282.75 37.671875 C 280.628906 37.222656 278.511719 36.292969 277.011719 35.15625 C 276.773438 34.972656 276.574219 34.863281 276.539062 34.882812 C 276.464844 34.972656 275.433594 36.796875 275.433594 36.867188 C 275.433594 36.941406 276.4375 37.691406 276.964844 38 C 279.011719 39.203125 281.671875 39.988281 284.519531 40.230469 C 285.5 40.316406 287.679688 40.261719 288.570312 40.148438 C 290.457031 39.878906 292.195312 39.3125 293.347656 38.582031 C 295.695312 37.105469 296.816406 34.769531 296.480469 32.027344 C 296.179688 29.539062 294.652344 27.882812 291.710938 26.863281 C 290.726562 26.53125 289.5 26.222656 286.933594 25.714844 C 284.277344 25.183594 283.535156 25.003906 282.574219 24.671875 C 280.476562 23.945312 279.34375 22.878906 279.011719 21.347656 C 278.882812 20.738281 278.921875 19.605469 279.097656 19.050781 C 279.699219 17.128906 281.332031 15.988281 284.136719 15.511719 C 284.996094 15.367188 287.738281 15.367188 288.625 15.511719 C 290.671875 15.839844 292.585938 16.542969 293.949219 17.453125 C 294.195312 17.617188 294.398438 17.726562 294.433594 17.699219 C 294.507812 17.617188 295.546875 15.777344 295.546875 15.730469 C 295.546875 15.707031 295.355469 15.558594 295.117188 15.402344 C 293.480469 14.320312 290.898438 13.488281 288.320312 13.207031 C 287.542969 13.132812 285.882812 13.089844 285.160156 13.144531 Z M 285.160156 13.144531 "/>
<path style=" stroke:none;fill-rule:nonzero;fill:rgb(0%,26.666667%,69.803922%);fill-opacity:1;" d="M 175.4375 26.699219 L 175.449219 40.085938 L 176.71875 40.097656 L 177.980469 40.113281 L 177.980469 13.316406 L 175.421875 13.316406 Z M 175.4375 26.699219 "/>
<path style=" stroke:none;fill-rule:nonzero;fill:rgb(0%,26.666667%,69.803922%);fill-opacity:1;" d="M 202.039062 26.714844 L 202.039062 40.113281 L 204.570312 40.085938 L 204.597656 13.316406 L 202.039062 13.316406 Z M 202.039062 26.714844 "/>
<path style=" stroke:none;fill-rule:nonzero;fill:rgb(0%,26.666667%,69.803922%);fill-opacity:1;" d="M 235.605469 26.699219 L 235.628906 40.085938 L 236.882812 40.097656 L 238.152344 40.113281 L 238.152344 13.316406 L 235.59375 13.316406 Z M 235.605469 26.699219 "/>
<path style=" stroke:none;fill-rule:nonzero;fill:rgb(0%,26.666667%,69.803922%);fill-opacity:1;" d="M 61.5625 35.445312 C 56.996094 40.707031 51.429688 44.996094 45.164062 48.089844 C 38.734375 51.269531 32.035156 53 24.691406 53.382812 C 23.320312 53.449219 19.816406 53.417969 18.601562 53.320312 C 15.832031 53.09375 13.308594 52.730469 11.042969 52.21875 C 10.558594 52.117188 10.15625 52.042969 10.140625 52.050781 C 10.121094 52.082031 11.683594 54.175781 12.386719 55.023438 C 14.414062 57.519531 16.929688 60.058594 19.414062 62.132812 C 22.472656 64.6875 25.617188 66.765625 29.148438 68.570312 C 30.257812 69.144531 31.945312 69.933594 32.054688 69.933594 C 32.175781 69.933594 33.820312 69.171875 35.1875 68.480469 C 41.582031 65.234375 47.226562 60.691406 51.914062 55.023438 C 56.289062 49.722656 59.722656 43.277344 61.664062 36.703125 C 62.027344 35.472656 62.253906 34.691406 62.230469 34.691406 C 62.226562 34.691406 61.925781 35.027344 61.5625 35.445312 Z M 61.5625 35.445312 "/>
<path style=" stroke:none;fill-rule:nonzero;fill:rgb(0%,26.666667%,69.803922%);fill-opacity:1;" d="M 93.644531 51.980469 C 91.339844 52.21875 89.46875 53.199219 88.5 54.667969 C 87.980469 55.441406 87.75 56.300781 87.75 57.414062 C 87.75 58.671875 88.082031 59.566406 88.855469 60.382812 C 89.796875 61.378906 90.621094 61.753906 93.222656 62.410156 C 94.230469 62.664062 95.234375 62.9375 95.453125 63.011719 C 96.621094 63.425781 97.03125 63.832031 97.03125 64.621094 C 97.03125 65.417969 96.546875 65.886719 95.445312 66.144531 C 95.277344 66.183594 94.742188 66.214844 94.117188 66.207031 C 92.566406 66.207031 91.453125 65.980469 89.796875 65.351562 C 89.046875 65.066406 88.839844 65.035156 88.535156 65.152344 C 88.183594 65.296875 87.96875 65.605469 87.605469 66.453125 C 87.242188 67.355469 87.183594 67.667969 87.351562 68.039062 C 87.496094 68.378906 87.714844 68.53125 88.445312 68.832031 C 91.835938 70.230469 96.066406 70.335938 98.546875 69.089844 C 99.574219 68.558594 100.394531 67.785156 100.84375 66.882812 C 101.1875 66.199219 101.40625 65.03125 101.34375 64.140625 C 101.199219 62.0625 99.921875 60.566406 97.609375 59.765625 C 97.40625 59.699219 96.429688 59.417969 95.46875 59.164062 C 92.933594 58.480469 92.457031 58.285156 92.179688 57.796875 C 91.910156 57.339844 91.953125 56.703125 92.285156 56.335938 C 92.710938 55.871094 93.441406 55.664062 94.730469 55.664062 C 95.71875 55.664062 96.519531 55.773438 97.636719 56.066406 C 99.023438 56.429688 99.132812 56.457031 99.40625 56.382812 C 99.765625 56.292969 100.003906 55.980469 100.359375 55.136719 C 100.804688 54.09375 100.804688 53.527344 100.359375 53.199219 C 99.984375 52.929688 98.566406 52.417969 97.609375 52.199219 C 96.613281 51.980469 94.660156 51.863281 93.644531 51.980469 Z M 93.644531 51.980469 "/>
<path style=" stroke:none;fill-rule:nonzero;fill:rgb(0%,26.666667%,69.803922%);fill-opacity:1;" d="M 207.566406 51.960938 C 205.914062 52.097656 204.179688 52.492188 202.714844 53.066406 C 201.28125 53.648438 201.210938 53.875 201.929688 55.644531 C 202.234375 56.410156 202.507812 56.675781 202.992188 56.675781 C 203.121094 56.675781 203.53125 56.566406 203.941406 56.417969 C 205.546875 55.855469 206.691406 55.644531 208.089844 55.644531 C 209.03125 55.644531 209.164062 55.652344 209.578125 55.789062 C 210.671875 56.128906 211.304688 56.800781 211.597656 57.921875 C 211.652344 58.144531 211.707031 58.515625 211.707031 58.746094 L 211.734375 59.164062 L 208.808594 59.617188 C 205.660156 60.109375 205.550781 60.128906 204.761719 60.382812 C 203.457031 60.792969 202.316406 61.597656 201.648438 62.574219 C 201.394531 62.945312 201.0625 63.683594 200.945312 64.140625 C 200.796875 64.714844 200.808594 66 200.964844 66.589844 C 201.582031 68.851562 203.757812 70.171875 206.496094 69.925781 C 207.871094 69.808594 209.347656 69.332031 211.15625 68.421875 C 211.515625 68.238281 211.824219 68.085938 211.835938 68.085938 C 211.84375 68.085938 211.871094 68.277344 211.886719 68.503906 C 211.917969 69.007812 212.054688 69.261719 212.398438 69.425781 C 212.609375 69.527344 212.726562 69.542969 213.777344 69.542969 C 214.621094 69.542969 214.976562 69.519531 215.105469 69.464844 C 215.359375 69.363281 215.632812 69.023438 215.695312 68.777344 C 215.707031 68.652344 215.734375 66.207031 215.734375 63.335938 C 215.734375 58.503906 215.726562 58.058594 215.632812 57.484375 C 215.15625 54.625 213.347656 52.675781 210.628906 52.117188 C 209.789062 51.941406 208.527344 51.871094 207.566406 51.960938 Z M 211.734375 63.613281 L 211.734375 65.085938 L 211.085938 65.359375 C 208.746094 66.363281 207.839844 66.644531 206.871094 66.652344 C 206.527344 66.65625 206.179688 66.628906 206.035156 66.589844 C 205.667969 66.472656 205.273438 66.152344 205.074219 65.796875 C 204.910156 65.507812 204.902344 65.449219 204.902344 64.925781 C 204.902344 64.265625 204.980469 64.066406 205.414062 63.664062 C 205.75 63.347656 205.980469 63.21875 206.527344 63.046875 C 206.917969 62.933594 211.566406 62.097656 211.675781 62.117188 C 211.707031 62.132812 211.734375 62.679688 211.734375 63.613281 Z M 211.734375 63.613281 "/>
<path style=" stroke:none;fill-rule:nonzero;fill:rgb(0%,26.666667%,69.803922%);fill-opacity:1;" d="M 248.792969 51.960938 C 247.152344 52.164062 245.386719 52.984375 243.699219 54.332031 C 243.429688 54.542969 243.195312 54.714844 243.183594 54.714844 C 243.160156 54.714844 243.148438 54.351562 243.148438 53.914062 C 243.148438 52.410156 242.964844 52.28125 240.855469 52.324219 C 239.53125 52.34375 239.386719 52.371094 239.113281 52.730469 L 238.957031 52.945312 L 238.929688 68.84375 L 239.058594 69.0625 C 239.136719 69.214844 239.265625 69.332031 239.429688 69.410156 C 239.667969 69.535156 239.730469 69.542969 241.121094 69.542969 C 242.519531 69.542969 242.589844 69.535156 242.820312 69.417969 C 242.984375 69.332031 243.113281 69.214844 243.1875 69.0625 L 243.320312 68.84375 L 243.320312 58.523438 L 244.191406 57.878906 C 245.835938 56.667969 246.855469 56.210938 248.125 56.136719 C 248.757812 56.089844 249.179688 56.171875 249.691406 56.417969 C 250.164062 56.664062 250.476562 56.996094 250.714844 57.496094 C 251.078125 58.261719 251.058594 57.933594 251.097656 63.636719 C 251.121094 67.394531 251.140625 68.878906 251.1875 68.980469 C 251.289062 69.1875 251.472656 69.371094 251.6875 69.464844 C 251.953125 69.574219 254.6875 69.574219 254.949219 69.464844 C 255.1875 69.363281 255.410156 69.097656 255.488281 68.824219 C 255.5625 68.535156 255.5625 58.152344 255.488281 57.414062 C 255.152344 54.296875 253.351562 52.335938 250.484375 51.980469 C 250.039062 51.925781 249.152344 51.910156 248.792969 51.960938 Z M 248.792969 51.960938 "/>
<path style=" stroke:none;fill-rule:nonzero;fill:rgb(0%,26.666667%,69.803922%);fill-opacity:1;" d="M 286.429688 51.980469 C 284.449219 52.214844 282.683594 53.066406 281.296875 54.460938 C 280.15625 55.617188 279.371094 57.03125 278.984375 58.652344 C 278.171875 62.082031 279.230469 65.714844 281.660156 67.839844 C 283.425781 69.378906 285.71875 70.117188 288.25 69.925781 C 289.519531 69.835938 290.488281 69.597656 291.519531 69.097656 C 293.21875 68.269531 294.6875 66.78125 295.519531 65.042969 C 296.734375 62.488281 296.71875 59.308594 295.492188 56.753906 C 294.6875 55.082031 293.308594 53.675781 291.65625 52.839844 C 290.175781 52.097656 288.230469 51.777344 286.429688 51.980469 Z M 288.769531 55.992188 C 289.945312 56.300781 290.824219 57.058594 291.402344 58.253906 C 292.210938 59.929688 292.183594 62.144531 291.328125 63.800781 C 290.988281 64.488281 290.222656 65.269531 289.601562 65.582031 C 288.871094 65.933594 288.585938 65.988281 287.519531 65.980469 C 286.648438 65.980469 286.539062 65.972656 286.128906 65.832031 C 284.539062 65.304688 283.433594 63.847656 283.160156 61.949219 C 283.070312 61.378906 283.105469 59.980469 283.222656 59.472656 C 283.523438 58.179688 284.3125 57.003906 285.269531 56.429688 C 285.679688 56.191406 286.347656 55.957031 286.878906 55.898438 C 287.390625 55.816406 288.277344 55.871094 288.769531 55.992188 Z M 288.769531 55.992188 "/>
<path style=" stroke:none;fill-rule:nonzero;fill:rgb(0%,26.666667%,69.803922%);fill-opacity:1;" d="M 125.230469 52.398438 C 124.902344 52.480469 124.675781 52.710938 124.585938 53.035156 C 124.546875 53.199219 124.53125 54.675781 124.554688 58.035156 C 124.566406 62.644531 124.566406 62.824219 124.683594 63.445312 C 125.261719 66.511719 126.960938 68.597656 129.589844 69.496094 C 131.4375 70.117188 133.945312 70.117188 135.738281 69.480469 C 138.1875 68.621094 139.859375 66.675781 140.554688 63.917969 C 140.816406 62.863281 140.824219 62.714844 140.851562 57.921875 C 140.871094 53.914062 140.863281 53.332031 140.789062 53.066406 C 140.679688 52.683594 140.425781 52.453125 140.03125 52.371094 C 139.664062 52.289062 137.566406 52.289062 137.199219 52.371094 C 136.859375 52.445312 136.570312 52.699219 136.480469 53.003906 C 136.441406 53.167969 136.421875 54.535156 136.421875 57.449219 C 136.421875 60.066406 136.398438 61.863281 136.359375 62.191406 C 136.132812 64.320312 135.191406 65.582031 133.609375 65.941406 C 133.042969 66.0625 131.929688 66.019531 131.480469 65.863281 C 130.191406 65.398438 129.492188 64.519531 129.105469 62.878906 C 129.015625 62.515625 129.007812 61.96875 128.980469 57.761719 C 128.949219 53.464844 128.949219 53.054688 128.851562 52.890625 C 128.710938 52.628906 128.457031 52.4375 128.144531 52.371094 C 127.734375 52.28125 125.578125 52.300781 125.230469 52.398438 Z M 125.230469 52.398438 "/>
<path style=" stroke:none;fill-rule:nonzero;fill:rgb(0%,26.666667%,69.803922%);fill-opacity:1;" d="M 164.945312 52.363281 C 164.667969 52.433594 164.441406 52.589844 164.304688 52.835938 C 164.175781 53.054688 164.167969 53.113281 164.167969 54.207031 C 164.167969 55.171875 164.1875 55.386719 164.269531 55.519531 C 164.378906 55.738281 164.578125 55.925781 164.777344 55.992188 C 164.878906 56.042969 166.183594 56.0625 168.742188 56.0625 C 171.335938 56.0625 172.535156 56.074219 172.535156 56.117188 C 172.535156 56.152344 170.714844 58.25 168.476562 60.777344 C 166.242188 63.308594 164.375 65.46875 164.3125 65.558594 C 164.082031 65.941406 164.039062 66.253906 164.039062 67.511719 C 164.039062 68.988281 164.101562 69.191406 164.621094 69.433594 C 164.832031 69.535156 165.136719 69.542969 170.808594 69.542969 C 174.5625 69.542969 176.855469 69.519531 176.976562 69.488281 C 177.238281 69.410156 177.515625 69.132812 177.59375 68.84375 C 177.625 68.699219 177.648438 68.257812 177.640625 67.582031 C 177.613281 66.371094 177.566406 66.199219 177.140625 65.960938 L 176.898438 65.816406 L 172.890625 65.796875 L 168.890625 65.769531 L 172.910156 61.203125 C 175.121094 58.699219 177.011719 56.539062 177.101562 56.410156 C 177.375 55.992188 177.4375 55.644531 177.410156 54.277344 C 177.402344 53.144531 177.386719 53.054688 177.273438 52.835938 C 177.191406 52.671875 177.058594 52.546875 176.902344 52.464844 L 176.671875 52.335938 L 170.898438 52.328125 C 167.71875 52.328125 165.042969 52.335938 164.945312 52.363281 Z M 164.945312 52.363281 "/>
</g>
</svg>
