<?xml version="1.0" encoding="UTF-8"?>
<svg xmlns="http://www.w3.org/2000/svg" xmlns:xlink="http://www.w3.org/1999/xlink" width="639px" height="150px" viewBox="0 0 638 150" version="1.1">
<g id="surface1">
<path style=" stroke:none;fill-rule:nonzero;fill:rgb(0%,26.666667%,69.803922%);fill-opacity:1;" d="M 64.8125 0.191406 C 64.496094 0.210938 63.339844 0.292969 62.261719 0.367188 C 44.917969 1.5 27.589844 6.9375 12.554688 16.03125 C 10.8125 17.066406 5.847656 20.332031 5.144531 20.882812 C 5.019531 20.992188 4.785156 21.898438 4.398438 23.804688 C 2.851562 31.640625 2.183594 38.304688 2.183594 46.230469 L 2.183594 50.097656 L 4.039062 50.953125 C 10.34375 53.847656 18.515625 56.601562 25.472656 58.140625 C 34.0625 60.058594 41.105469 60.835938 50.003906 60.835938 C 56.535156 60.835938 61.351562 60.46875 67.371094 59.515625 C 93.046875 55.488281 116.554688 42.496094 133.84375 22.777344 C 134.554688 21.957031 135.136719 21.253906 135.097656 21.210938 C 134.996094 21.035156 129.628906 17.460938 127.804688 16.347656 C 122.269531 12.984375 115.820312 9.785156 110.007812 7.542969 C 99.722656 3.589844 89.550781 1.3125 77.851562 0.351562 C 76.304688 0.21875 66.042969 0.101562 64.8125 0.191406 Z M 64.8125 0.191406 "/>
<path style=" stroke:none;fill-rule:nonzero;fill:rgb(0%,26.666667%,69.803922%);fill-opacity:1;" d="M 405.191406 45.140625 L 405.191406 85.957031 L 410.535156 85.957031 L 410.535156 4.320312 L 405.191406 4.320312 Z M 405.191406 45.140625 "/>
<path style=" stroke:none;fill-rule:nonzero;fill:rgb(0%,26.666667%,69.803922%);fill-opacity:1;" d="M 378.46875 5.757812 C 377.207031 6.019531 375.96875 7.015625 375.367188 8.246094 C 375.074219 8.863281 375.03125 9.046875 375.03125 10.136719 C 375.03125 11.175781 375.074219 11.410156 375.351562 12.011719 C 375.75 12.867188 376.539062 13.667969 377.441406 14.105469 C 378.066406 14.398438 378.242188 14.4375 379.371094 14.4375 C 380.484375 14.4375 380.703125 14.398438 381.289062 14.136719 C 382.617188 13.492188 383.496094 12.347656 383.78125 10.804688 C 384.265625 8.304688 382.324219 5.859375 379.691406 5.699219 C 379.28125 5.667969 378.746094 5.699219 378.46875 5.757812 Z M 378.46875 5.757812 "/>
<path style=" stroke:none;fill-rule:nonzero;fill:rgb(0%,26.666667%,69.803922%);fill-opacity:1;" d="M 435.289062 5.800781 C 433.882812 6.1875 432.980469 6.929688 432.351562 8.21875 C 431.96875 9.039062 431.902344 9.234375 431.902344 10.054688 C 431.902344 11.15625 432.144531 11.9375 432.769531 12.757812 C 433.683594 13.988281 434.996094 14.574219 436.660156 14.472656 C 437.386719 14.4375 437.789062 14.355469 438.265625 14.105469 C 439.117188 13.695312 439.964844 12.832031 440.390625 11.996094 C 440.664062 11.390625 440.691406 11.191406 440.691406 10.0625 C 440.691406 8.863281 440.683594 8.773438 440.296875 8.0625 C 439.300781 6.226562 437.1875 5.257812 435.289062 5.800781 Z M 435.289062 5.800781 "/>
<path style=" stroke:none;fill-rule:nonzero;fill:rgb(0%,26.666667%,69.803922%);fill-opacity:1;" d="M 507.300781 5.757812 C 506.046875 6.019531 504.792969 7.015625 504.191406 8.246094 C 503.898438 8.863281 503.855469 9.046875 503.855469 10.136719 C 503.855469 11.175781 503.898438 11.410156 504.175781 12.011719 C 504.585938 12.867188 505.371094 13.667969 506.28125 14.105469 C 506.875 14.398438 507.085938 14.4375 508.207031 14.4375 C 509.316406 14.4375 509.527344 14.398438 510.113281 14.136719 C 511.449219 13.492188 512.3125 12.347656 512.605469 10.804688 C 513.089844 8.304688 511.15625 5.859375 508.515625 5.699219 C 508.105469 5.667969 507.570312 5.699219 507.300781 5.757812 Z M 507.300781 5.757812 "/>
<path style=" stroke:none;fill-rule:nonzero;fill:rgb(0%,26.666667%,69.803922%);fill-opacity:1;" d="M 187.867188 47.476562 L 187.867188 85.957031 L 190.628906 85.921875 L 193.402344 85.898438 L 193.4375 68.890625 L 193.453125 51.898438 L 234.140625 51.898438 L 234.140625 46.890625 L 193.453125 46.890625 L 193.453125 14.019531 L 238.90625 14.019531 L 238.90625 9 L 187.867188 9 Z M 187.867188 47.476562 "/>
<path style=" stroke:none;fill-rule:nonzero;fill:rgb(0%,26.666667%,69.803922%);fill-opacity:1;" d="M 463.203125 16.03125 C 463.144531 16.070312 463.121094 18.910156 463.121094 22.324219 L 463.121094 28.535156 L 452.640625 28.535156 L 452.640625 33.207031 L 463.105469 33.207031 L 463.144531 53.011719 C 463.195312 71.191406 463.222656 72.933594 463.414062 74.078125 C 463.980469 77.535156 465.234375 80.230469 467.269531 82.25 C 469.960938 84.945312 473.773438 86.324219 478.632812 86.324219 C 481.996094 86.324219 484.847656 85.640625 487.53125 84.242188 C 488.628906 83.671875 489.898438 82.757812 490.167969 82.359375 C 490.242188 82.222656 489.992188 81.703125 489.171875 80.347656 C 488.570312 79.351562 488.074219 78.53125 488.035156 78.53125 C 488.015625 78.53125 487.640625 78.808594 487.179688 79.144531 C 485.214844 80.609375 482.65625 81.46875 479.703125 81.605469 C 476.265625 81.753906 473.421875 80.785156 471.507812 78.824219 C 470.539062 77.828125 470.003906 76.976562 469.476562 75.527344 C 468.613281 73.257812 468.671875 74.632812 468.640625 52.828125 L 468.574219 33.207031 L 486.671875 33.207031 L 486.671875 28.535156 L 468.582031 28.535156 L 468.582031 15.953125 L 465.9375 15.953125 C 464.476562 15.953125 463.238281 15.980469 463.203125 16.03125 Z M 463.203125 16.03125 "/>
<path style=" stroke:none;fill-rule:nonzero;fill:rgb(0%,26.666667%,69.803922%);fill-opacity:1;" d="M 134.710938 28.199219 C 130.679688 33.140625 125.4375 38.421875 120.277344 42.757812 C 96.695312 62.5625 66.554688 71.660156 35.902344 68.1875 C 25.296875 67.015625 14.25 64.042969 4.414062 59.78125 C 3.296875 59.3125 2.894531 59.164062 2.894531 59.3125 C 2.894531 59.398438 3.0625 60.644531 3.261719 62.085938 C 4.667969 72.164062 7.175781 81.1875 11.148438 90.628906 C 12.242188 93.265625 15.605469 100.210938 15.890625 100.429688 C 15.972656 100.503906 16.867188 100.804688 17.871094 101.109375 C 26.050781 103.578125 33.535156 104.984375 42.507812 105.6875 C 45.722656 105.953125 54.367188 105.996094 57.554688 105.761719 C 70.867188 104.808594 82.660156 101.96875 94.320312 96.957031 C 109.085938 90.609375 122.820312 80.742188 133.382812 68.882812 C 136.351562 65.550781 136.132812 65.882812 136.394531 64.351562 C 137.363281 58.34375 137.796875 52.71875 137.796875 46.097656 C 137.796875 39.566406 137.480469 35.140625 136.527344 28.769531 C 136.351562 27.613281 136.175781 26.644531 136.132812 26.601562 C 136.101562 26.542969 135.457031 27.28125 134.710938 28.199219 Z M 134.710938 28.199219 "/>
<path style=" stroke:none;fill-rule:nonzero;fill:rgb(0%,26.666667%,69.803922%);fill-opacity:1;" d="M 269.582031 28.140625 C 265.996094 28.34375 261.972656 29.179688 258.6875 30.394531 C 256.863281 31.070312 253.585938 32.71875 252.019531 33.808594 C 250.3125 34.9375 248.941406 36.050781 248.960938 36.269531 C 248.96875 36.351562 249.554688 37.25 250.253906 38.277344 L 251.527344 40.152344 L 252.621094 39.257812 C 256.761719 35.917969 262.179688 33.726562 267.835938 33.105469 C 269.308594 32.929688 273.164062 32.929688 274.464844 33.105469 C 278.515625 33.609375 281.726562 35.023438 283.96875 37.28125 C 285.339844 38.648438 286.417969 40.445312 287.078125 42.4375 C 287.863281 44.808594 288.140625 47.152344 288.140625 51.386719 L 288.140625 53.949219 L 276.347656 53.980469 C 263.496094 54.039062 263.628906 54.007812 260.425781 54.742188 C 257.722656 55.355469 255.265625 56.367188 253.339844 57.671875 C 251.484375 58.921875 249.613281 61.113281 248.691406 63.121094 C 247.21875 66.386719 246.925781 70.824219 247.949219 74.574219 C 248.257812 75.746094 249.429688 78.140625 250.195312 79.125 C 252.816406 82.601562 257.078125 84.976562 262.367188 85.898438 C 265.21875 86.390625 269.75 86.441406 272.492188 86.03125 C 275.1875 85.605469 277.914062 84.75 280.0625 83.671875 C 282.839844 82.28125 285.730469 79.703125 287.429688 77.109375 L 288.316406 75.746094 L 288.359375 80.84375 L 288.375 85.957031 L 293.492188 85.957031 L 293.492188 66.5625 C 293.492188 50.023438 293.460938 46.949219 293.316406 45.609375 C 292.246094 36.386719 287.027344 30.527344 278.261719 28.726562 C 275.996094 28.257812 271.984375 27.984375 269.582031 28.140625 Z M 288.117188 63.589844 L 288.140625 68.980469 L 287.429688 70.488281 C 284.542969 76.5 279.871094 80.171875 273.472656 81.386719 C 268.519531 82.359375 262.632812 81.738281 258.9375 79.863281 C 254.5625 77.671875 252.386719 73.617188 252.832031 68.539062 C 253.308594 63.023438 256.746094 59.789062 263.402344 58.609375 C 265.511719 58.242188 267.566406 58.183594 278.222656 58.183594 L 288.082031 58.199219 Z M 288.117188 63.589844 "/>
<path style=" stroke:none;fill-rule:nonzero;fill:rgb(0%,26.666667%,69.803922%);fill-opacity:1;" d="M 336.246094 28.183594 C 325.339844 28.96875 316.433594 35.171875 312.367188 44.722656 C 311.332031 47.210938 310.585938 49.9375 310.195312 52.867188 C 309.902344 54.960938 309.902344 59.574219 310.195312 61.546875 C 310.761719 65.53125 311.917969 69.140625 313.5625 72.113281 C 317.804688 79.78125 324.90625 84.59375 334.0625 86.03125 C 335.777344 86.273438 339.714844 86.390625 341.613281 86.207031 C 349.125 85.523438 355.570312 82.132812 359.585938 76.773438 C 359.953125 76.3125 360.230469 75.878906 360.230469 75.820312 C 360.214844 75.6875 356.476562 72.949219 356.332031 72.949219 C 356.273438 72.949219 355.964844 73.265625 355.648438 73.667969 C 351.683594 78.65625 345.71875 81.386719 338.753906 81.402344 C 335.933594 81.402344 333.335938 81 330.773438 80.140625 C 322.363281 77.359375 316.777344 70.171875 315.679688 60.6875 C 315.480469 58.921875 315.4375 55.757812 315.636719 54.082031 C 316.617188 44.867188 321.71875 37.851562 329.738281 34.628906 C 333.785156 33.023438 339.4375 32.601562 344.03125 33.589844 C 348.722656 34.59375 352.871094 37.191406 355.789062 40.957031 L 356.273438 41.585938 L 358.257812 40.136719 C 359.34375 39.351562 360.230469 38.648438 360.230469 38.578125 C 360.230469 38.363281 358.640625 36.402344 357.546875 35.289062 C 352.417969 30.09375 344.816406 27.5625 336.246094 28.183594 Z M 336.246094 28.183594 "/>
<path style=" stroke:none;fill-rule:nonzero;fill:rgb(0%,26.666667%,69.803922%);fill-opacity:1;" d="M 552.738281 28.167969 C 544.207031 28.902344 537.125 33.105469 532.566406 40.101562 C 530.101562 43.886719 528.636719 48.0625 527.992188 53.101562 C 527.726562 55.179688 527.742188 59.253906 527.992188 61.3125 C 529.128906 70.019531 533.371094 77.09375 540.144531 81.5625 C 542.679688 83.21875 546.515625 84.828125 549.601562 85.53125 C 552.289062 86.132812 553.609375 86.25 556.960938 86.265625 C 560.617188 86.265625 562.15625 86.089844 565.015625 85.355469 C 568.753906 84.398438 571.78125 82.96875 574.675781 80.765625 C 575.964844 79.820312 578.53125 77.269531 578.472656 77.015625 C 578.445312 76.832031 575.5625 73.492188 575.417969 73.492188 C 575.378906 73.492188 575.007812 73.886719 574.582031 74.339844 C 571.914062 77.359375 567.699219 79.730469 563.257812 80.726562 C 556.160156 82.339844 548.589844 81.035156 542.996094 77.269531 C 537.183594 73.34375 533.820312 67.28125 533.117188 59.371094 L 533.042969 58.5 L 582.050781 58.5 L 582.144531 57.464844 C 582.242188 56.25 582.035156 53.320312 581.714844 51.351562 C 580.644531 44.742188 577.570312 38.863281 573.035156 34.789062 C 569.0625 31.214844 564.039062 28.960938 558.574219 28.300781 C 557.128906 28.140625 554.101562 28.050781 552.738281 28.167969 Z M 559.421875 33.324219 C 567.984375 35.054688 574.207031 41.234375 576.238281 50.054688 C 576.457031 50.992188 576.832031 53.539062 576.832031 54.082031 C 576.832031 54.316406 576.574219 54.316406 555.082031 54.316406 C 542.09375 54.316406 533.292969 54.257812 533.253906 54.199219 C 533.152344 54.007812 533.511719 51.371094 533.847656 49.9375 C 536.03125 40.679688 542.820312 34.359375 551.984375 33.089844 C 552.402344 33.03125 553.953125 33.003906 555.433594 33.023438 C 557.605469 33.0625 558.34375 33.105469 559.421875 33.324219 Z M 559.421875 33.324219 "/>
<path style=" stroke:none;fill-rule:nonzero;fill:rgb(0%,26.666667%,69.803922%);fill-opacity:1;" d="M 611.582031 28.167969 C 602.816406 28.871094 596.777344 32.167969 594.136719 37.691406 C 592.320312 41.5 592.304688 46.3125 594.078125 50.054688 C 596 54.117188 599.863281 56.617188 606.8125 58.382812 C 608.535156 58.828125 609.550781 59.019531 616.082031 60.292969 C 620.671875 61.195312 623.140625 61.917969 625.3125 63.003906 C 628.835938 64.746094 630.472656 67.207031 630.488281 70.757812 C 630.5 76.332031 626.894531 79.828125 619.953125 81.035156 C 615.671875 81.753906 610.738281 81.65625 606.421875 80.726562 C 601.878906 79.761719 597.347656 77.769531 594.136719 75.335938 C 593.625 74.941406 593.199219 74.707031 593.125 74.75 C 592.964844 74.941406 590.757812 78.851562 590.757812 79 C 590.757812 79.160156 592.90625 80.765625 594.035156 81.429688 C 598.417969 84.007812 604.113281 85.6875 610.210938 86.207031 C 612.308594 86.390625 616.976562 86.273438 618.882812 86.03125 C 622.921875 85.453125 626.644531 84.242188 629.109375 82.675781 C 634.136719 79.511719 636.535156 74.507812 635.816406 68.628906 C 635.171875 63.296875 631.902344 59.75 625.605469 57.5625 C 623.5 56.851562 620.871094 56.191406 615.378906 55.101562 C 609.691406 53.964844 608.101562 53.578125 606.042969 52.867188 C 601.554688 51.3125 599.128906 49.027344 598.417969 45.746094 C 598.140625 44.4375 598.226562 42.011719 598.601562 40.824219 C 599.890625 36.703125 603.386719 34.261719 609.390625 33.238281 C 611.230469 32.929688 617.101562 32.929688 619 33.238281 C 623.382812 33.941406 627.480469 35.449219 630.398438 37.398438 C 630.925781 37.75 631.359375 37.984375 631.433594 37.925781 C 631.59375 37.75 633.820312 33.808594 633.820312 33.707031 C 633.820312 33.65625 633.410156 33.339844 632.898438 33.003906 C 629.394531 30.6875 623.867188 28.902344 618.347656 28.300781 C 616.683594 28.140625 613.128906 28.050781 611.582031 28.167969 Z M 611.582031 28.167969 "/>
<path style=" stroke:none;fill-rule:nonzero;fill:rgb(0%,26.666667%,69.803922%);fill-opacity:1;" d="M 376.671875 57.210938 L 376.695312 85.898438 L 379.414062 85.921875 L 382.117188 85.957031 L 382.117188 28.535156 L 376.636719 28.535156 Z M 376.671875 57.210938 "/>
<path style=" stroke:none;fill-rule:nonzero;fill:rgb(0%,26.666667%,69.803922%);fill-opacity:1;" d="M 433.625 57.246094 L 433.625 85.957031 L 439.042969 85.898438 L 439.101562 28.535156 L 433.625 28.535156 Z M 433.625 57.246094 "/>
<path style=" stroke:none;fill-rule:nonzero;fill:rgb(0%,26.666667%,69.803922%);fill-opacity:1;" d="M 505.488281 57.210938 L 505.539062 85.898438 L 508.222656 85.921875 L 510.941406 85.957031 L 510.941406 28.535156 L 505.460938 28.535156 Z M 505.488281 57.210938 "/>
<path style=" stroke:none;fill-rule:nonzero;fill:rgb(0%,26.666667%,69.803922%);fill-opacity:1;" d="M 132.871094 75.953125 C 123.09375 87.230469 111.179688 96.421875 97.765625 103.050781 C 84 109.863281 69.65625 113.570312 53.933594 114.390625 C 50.996094 114.535156 43.496094 114.46875 40.894531 114.257812 C 34.964844 113.773438 29.5625 112.992188 24.710938 111.898438 C 23.675781 111.679688 22.8125 111.519531 22.78125 111.539062 C 22.738281 111.605469 26.085938 116.089844 27.589844 117.90625 C 31.929688 123.257812 37.316406 128.695312 42.636719 133.140625 C 49.183594 138.617188 55.914062 143.070312 63.476562 146.9375 C 65.851562 148.167969 69.464844 149.859375 69.699219 149.859375 C 69.957031 149.859375 73.476562 148.226562 76.40625 146.742188 C 90.09375 139.789062 102.179688 130.054688 112.214844 117.90625 C 121.582031 106.546875 128.933594 92.738281 133.089844 78.648438 C 133.867188 76.011719 134.351562 74.339844 134.300781 74.339844 C 134.292969 74.339844 133.648438 75.058594 132.871094 75.953125 Z M 132.871094 75.953125 "/>
<path style=" stroke:none;fill-rule:nonzero;fill:rgb(0%,26.666667%,69.803922%);fill-opacity:1;" d="M 201.558594 111.386719 C 196.625 111.898438 192.617188 114 190.542969 117.144531 C 189.429688 118.804688 188.9375 120.644531 188.9375 123.03125 C 188.9375 125.726562 189.648438 127.640625 191.304688 129.390625 C 193.320312 131.527344 195.085938 132.328125 200.65625 133.734375 C 202.8125 134.28125 204.960938 134.867188 205.429688 135.023438 C 207.929688 135.914062 208.808594 136.78125 208.808594 138.472656 C 208.808594 140.179688 207.773438 141.1875 205.414062 141.738281 C 205.054688 141.820312 203.90625 141.890625 202.570312 141.871094 C 199.25 141.871094 196.867188 141.386719 193.320312 140.039062 C 191.714844 139.429688 191.269531 139.359375 190.617188 139.613281 C 189.867188 139.921875 189.40625 140.582031 188.628906 142.398438 C 187.851562 144.332031 187.726562 145.003906 188.085938 145.796875 C 188.394531 146.527344 188.863281 146.851562 190.425781 147.496094 C 197.6875 150.492188 206.742188 150.71875 212.054688 148.050781 C 214.253906 146.910156 216.007812 145.253906 216.972656 143.320312 C 217.707031 141.855469 218.175781 139.351562 218.042969 137.445312 C 217.730469 132.992188 214.996094 129.785156 210.046875 128.070312 C 209.613281 127.925781 207.519531 127.324219 205.464844 126.78125 C 200.035156 125.316406 199.015625 124.898438 198.421875 123.851562 C 197.84375 122.871094 197.9375 121.507812 198.648438 120.71875 C 199.558594 119.722656 201.121094 119.28125 203.882812 119.28125 C 206 119.28125 207.714844 119.515625 210.105469 120.140625 C 213.074219 120.921875 213.308594 120.980469 213.894531 120.820312 C 214.664062 120.628906 215.171875 119.957031 215.933594 118.148438 C 216.886719 115.914062 216.886719 114.703125 215.933594 114 C 215.132812 113.421875 212.09375 112.324219 210.046875 111.855469 C 207.914062 111.386719 203.730469 111.136719 201.558594 111.386719 Z M 201.558594 111.386719 "/>
<path style=" stroke:none;fill-rule:nonzero;fill:rgb(0%,26.666667%,69.803922%);fill-opacity:1;" d="M 445.457031 111.34375 C 441.921875 111.636719 438.207031 112.484375 435.070312 113.714844 C 432 114.960938 431.851562 115.445312 433.390625 119.238281 C 434.042969 120.878906 434.628906 121.449219 435.664062 121.449219 C 435.941406 121.449219 436.820312 121.214844 437.695312 120.894531 C 441.132812 119.691406 443.585938 119.238281 446.578125 119.238281 C 448.59375 119.238281 448.878906 119.253906 449.765625 119.546875 C 452.105469 120.277344 453.460938 121.714844 454.089844 124.117188 C 454.207031 124.59375 454.324219 125.390625 454.324219 125.882812 L 454.382812 126.78125 L 448.117188 127.75 C 441.375 128.804688 441.140625 128.847656 439.453125 129.390625 C 436.660156 130.269531 434.21875 131.996094 432.789062 134.085938 C 432.242188 134.882812 431.53125 136.464844 431.28125 137.445312 C 430.964844 138.675781 430.988281 141.429688 431.324219 142.691406 C 432.644531 147.539062 437.304688 150.367188 443.167969 149.839844 C 446.109375 149.589844 449.269531 148.570312 453.144531 146.617188 C 453.914062 146.226562 454.574219 145.898438 454.597656 145.898438 C 454.613281 145.898438 454.671875 146.308594 454.707031 146.792969 C 454.773438 147.875 455.066406 148.417969 455.800781 148.769531 C 456.253906 148.988281 456.503906 149.019531 458.753906 149.019531 C 460.5625 149.019531 461.324219 148.96875 461.597656 148.851562 C 462.140625 148.636719 462.726562 147.90625 462.859375 147.378906 C 462.886719 147.113281 462.945312 141.871094 462.945312 135.71875 C 462.945312 125.367188 462.929688 124.410156 462.726562 123.179688 C 461.707031 117.054688 457.835938 112.875 452.015625 111.679688 C 450.214844 111.304688 447.515625 111.152344 445.457031 111.34375 Z M 454.382812 136.3125 L 454.382812 139.46875 L 452.992188 140.054688 C 447.984375 142.207031 446.042969 142.808594 443.96875 142.828125 C 443.234375 142.835938 442.488281 142.777344 442.179688 142.691406 C 441.394531 142.441406 440.546875 141.753906 440.121094 140.992188 C 439.769531 140.375 439.753906 140.25 439.753906 139.125 C 439.753906 137.710938 439.921875 137.285156 440.847656 136.421875 C 441.570312 135.746094 442.0625 135.46875 443.234375 135.101562 C 444.070312 134.859375 454.019531 133.066406 454.253906 133.109375 C 454.324219 133.140625 454.382812 134.3125 454.382812 136.3125 Z M 454.382812 136.3125 "/>
<path style=" stroke:none;fill-rule:nonzero;fill:rgb(0%,26.666667%,69.803922%);fill-opacity:1;" d="M 533.722656 111.34375 C 530.207031 111.78125 526.429688 113.539062 522.816406 116.425781 C 522.238281 116.878906 521.738281 117.246094 521.710938 117.246094 C 521.660156 117.246094 521.636719 116.46875 521.636719 115.53125 C 521.636719 112.308594 521.242188 112.03125 516.726562 112.125 C 513.890625 112.164062 513.582031 112.222656 512.996094 112.992188 L 512.664062 113.453125 L 512.605469 147.523438 L 512.878906 147.992188 C 513.046875 148.316406 513.324219 148.570312 513.675781 148.734375 C 514.183594 149.003906 514.320312 149.019531 517.296875 149.019531 C 520.289062 149.019531 520.441406 149.003906 520.933594 148.753906 C 521.285156 148.570312 521.5625 148.316406 521.71875 147.992188 L 522.003906 147.523438 L 522.003906 125.40625 L 523.871094 124.027344 C 527.390625 121.429688 529.574219 120.453125 532.292969 120.292969 C 533.644531 120.191406 534.550781 120.367188 535.644531 120.894531 C 536.65625 121.421875 537.324219 122.132812 537.835938 123.207031 C 538.613281 124.847656 538.570312 124.144531 538.65625 136.363281 C 538.707031 144.417969 538.746094 147.597656 538.847656 147.816406 C 539.066406 148.257812 539.457031 148.652344 539.917969 148.851562 C 540.488281 149.085938 546.339844 149.085938 546.902344 148.851562 C 547.410156 148.636719 547.886719 148.066406 548.054688 147.480469 C 548.214844 146.859375 548.214844 124.613281 548.054688 123.03125 C 547.335938 116.351562 543.480469 112.148438 537.34375 111.386719 C 536.390625 111.269531 534.492188 111.234375 533.722656 111.34375 Z M 533.722656 111.34375 "/>
<path style=" stroke:none;fill-rule:nonzero;fill:rgb(0%,26.666667%,69.803922%);fill-opacity:1;" d="M 614.300781 111.386719 C 610.058594 111.890625 606.277344 113.714844 603.308594 116.703125 C 600.867188 119.179688 599.1875 122.210938 598.359375 125.683594 C 596.621094 133.03125 598.886719 140.816406 604.085938 145.371094 C 607.867188 148.667969 612.777344 150.25 618.195312 149.839844 C 620.914062 149.648438 622.988281 149.136719 625.195312 148.066406 C 628.835938 146.292969 631.980469 143.101562 633.761719 139.378906 C 636.359375 133.902344 636.328125 127.089844 633.703125 121.617188 C 631.980469 118.03125 629.027344 115.019531 625.488281 113.226562 C 622.320312 111.636719 618.15625 110.953125 614.300781 111.386719 Z M 619.308594 119.984375 C 621.824219 120.644531 623.707031 122.269531 624.945312 124.828125 C 626.675781 128.421875 626.617188 133.167969 624.785156 136.714844 C 624.058594 138.1875 622.417969 139.863281 621.089844 140.53125 C 619.527344 141.285156 618.914062 141.402344 616.632812 141.386719 C 614.765625 141.386719 614.535156 141.371094 613.65625 141.070312 C 610.25 139.9375 607.882812 136.816406 607.300781 132.75 C 607.105469 131.527344 607.183594 128.53125 607.433594 127.441406 C 608.078125 124.671875 609.765625 122.152344 611.816406 120.921875 C 612.695312 120.410156 614.125 119.90625 615.261719 119.78125 C 616.355469 119.605469 618.253906 119.722656 619.308594 119.984375 Z M 619.308594 119.984375 "/>
<path style=" stroke:none;fill-rule:nonzero;fill:rgb(0%,26.666667%,69.803922%);fill-opacity:1;" d="M 269.179688 112.28125 C 268.480469 112.457031 267.992188 112.953125 267.800781 113.648438 C 267.71875 114 267.683594 117.164062 267.734375 124.359375 C 267.757812 134.238281 267.757812 134.625 268.011719 135.953125 C 269.25 142.523438 272.886719 146.996094 278.515625 148.921875 C 282.46875 150.25 287.839844 150.25 291.679688 148.886719 C 296.921875 147.046875 300.5 142.875 301.988281 136.96875 C 302.550781 134.707031 302.566406 134.390625 302.625 124.117188 C 302.667969 115.53125 302.648438 114.28125 302.492188 113.714844 C 302.257812 112.894531 301.714844 112.398438 300.867188 112.222656 C 300.082031 112.046875 295.59375 112.046875 294.804688 112.222656 C 294.078125 112.382812 293.460938 112.925781 293.265625 113.578125 C 293.183594 113.929688 293.140625 116.859375 293.140625 123.105469 C 293.140625 128.714844 293.089844 132.5625 293.007812 133.265625 C 292.523438 137.828125 290.507812 140.53125 287.121094 141.304688 C 285.90625 141.5625 283.523438 141.46875 282.5625 141.136719 C 279.800781 140.140625 278.304688 138.257812 277.476562 134.742188 C 277.285156 133.960938 277.269531 132.789062 277.210938 123.773438 C 277.144531 114.566406 277.144531 113.6875 276.933594 113.335938 C 276.632812 112.777344 276.089844 112.367188 275.421875 112.222656 C 274.542969 112.03125 269.925781 112.074219 269.179688 112.28125 Z M 269.179688 112.28125 "/>
<path style=" stroke:none;fill-rule:nonzero;fill:rgb(0%,26.666667%,69.803922%);fill-opacity:1;" d="M 354.207031 112.207031 C 353.613281 112.359375 353.128906 112.691406 352.835938 113.21875 C 352.5625 113.6875 352.542969 113.8125 352.542969 116.15625 C 352.542969 118.226562 352.585938 118.6875 352.761719 118.96875 C 352.996094 119.4375 353.421875 119.839844 353.847656 119.984375 C 354.066406 120.09375 356.859375 120.132812 362.335938 120.132812 C 367.890625 120.132812 370.457031 120.160156 370.457031 120.25 C 370.457031 120.328125 366.5625 124.820312 361.769531 130.238281 C 356.984375 135.660156 352.988281 140.289062 352.855469 140.484375 C 352.359375 141.304688 352.269531 141.972656 352.269531 144.667969 C 352.269531 147.832031 352.402344 148.265625 353.515625 148.785156 C 353.964844 149.003906 354.617188 149.019531 366.761719 149.019531 C 374.796875 149.019531 379.707031 148.96875 379.964844 148.902344 C 380.527344 148.734375 381.121094 148.140625 381.289062 147.523438 C 381.355469 147.210938 381.40625 146.265625 381.386719 144.820312 C 381.328125 142.222656 381.230469 141.855469 380.316406 141.34375 L 379.800781 141.035156 L 371.21875 140.992188 L 362.65625 140.933594 L 371.261719 131.148438 C 375.996094 125.785156 380.042969 121.15625 380.234375 120.878906 C 380.820312 119.984375 380.953125 119.238281 380.894531 116.308594 C 380.878906 113.882812 380.84375 113.6875 380.601562 113.21875 C 380.425781 112.867188 380.140625 112.601562 379.808594 112.425781 L 379.3125 112.148438 L 366.953125 112.132812 C 360.144531 112.132812 354.417969 112.148438 354.207031 112.207031 Z M 354.207031 112.207031 "/>
</g>
</svg>
